<?xml version="1.0" standalone="no"?>
<!DOCTYPE svg PUBLIC "-//W3C//DTD SVG 1.1//EN" "http://www.w3.org/Graphics/SVG/1.1/DTD/svg11.dtd" >
<svg xmlns="http://www.w3.org/2000/svg">
<metadata></metadata>
<defs>
<font id="viewbook_iconregular" horiz-adv-x="2048" >
<font-face units-per-em="2048" ascent="1638" descent="-410" />
<missing-glyph horiz-adv-x="1228" />
<glyph />
<glyph />
<glyph unicode="&#xd;" />
<glyph unicode=" "  horiz-adv-x="1228" />
<glyph unicode="&#x09;" horiz-adv-x="1228" />
<glyph unicode="&#xa0;" horiz-adv-x="1228" />
<glyph unicode="!" d="M102 41v1393h492v-1639h-246q-101 0 -173.5 72.5t-72.5 173.5zM717 -205v1639h1229v-1393q0 -101 -72.5 -173.5t-173.5 -72.5h-983z" />
<glyph unicode="&#x22;" d="M123 246h205v737h-205l233 311q31 40 74 40t74 -40l233 -311h-205v-737h205l-233 -312q-31 -40 -74 -40t-74 40zM799 41v-82q0 -26 17.5 -43.5t43.5 -17.5h512q26 0 44 17.5t18 43.5v82q0 26 -18 43.5t-44 17.5h-512q-26 0 -43.5 -17.5t-17.5 -43.5zM799 369 q0 -26 17.5 -44t43.5 -18h1004q26 0 43.5 18t17.5 44v82q0 26 -17.5 43.5t-43.5 17.5h-1004q-26 0 -43.5 -17.5t-17.5 -43.5v-82zM799 778q0 -26 17.5 -43.5t43.5 -17.5h799q26 0 43.5 17.5t17.5 43.5v82q0 26 -17.5 44t-43.5 18h-799q-26 0 -43.5 -18t-17.5 -44v-82z M799 1188q0 -26 17.5 -44t43.5 -18h1004q26 0 43.5 18t17.5 44v82q0 26 -17.5 43.5t-43.5 17.5h-1004q-26 0 -43.5 -17.5t-17.5 -43.5v-82z" />
<glyph unicode="#" d="M307 -41q0 -26 18 -43.5t44 -17.5h245q26 0 44 17.5t18 43.5v246q0 25 -18 43t-44 18h-245q-26 0 -44 -18t-18 -43v-246zM307 492q0 -26 18 -44t44 -18h245q26 0 44 18t18 44v245q0 25 -18 43.5t-44 18.5h-245q-26 0 -44 -18.5t-18 -43.5v-245zM307 1024q0 -26 18 -43.5 t44 -17.5h245q26 0 44 17.5t18 43.5v246q0 25 -18 43t-44 18h-245q-26 0 -44 -18t-18 -43v-246zM840 -41q0 -26 17.5 -43.5t43.5 -17.5h246q26 0 43.5 17.5t17.5 43.5v246q0 25 -17.5 43t-43.5 18h-246q-26 0 -43.5 -18t-17.5 -43v-246zM840 492q0 -26 17.5 -44t43.5 -18 h246q26 0 43.5 18t17.5 44v245q0 25 -17.5 43.5t-43.5 18.5h-246q-26 0 -43.5 -18.5t-17.5 -43.5v-245zM840 1024q0 -26 17.5 -43.5t43.5 -17.5h246q26 0 43.5 17.5t17.5 43.5v246q0 25 -17.5 43t-43.5 18h-246q-26 0 -43.5 -18t-17.5 -43v-246zM1372 -41q0 -26 18 -43.5 t44 -17.5h245q26 0 44 17.5t18 43.5v246q0 25 -18 43t-44 18h-245q-26 0 -44 -18t-18 -43v-246zM1372 492q0 -26 18 -44t44 -18h245q26 0 44 18t18 44v245q0 25 -18 43.5t-44 18.5h-245q-26 0 -44 -18.5t-18 -43.5v-245zM1372 1024q0 -26 18 -43.5t44 -17.5h245 q26 0 44 17.5t18 43.5v246q0 25 -18 43t-44 18h-245q-26 0 -44 -18t-18 -43v-246z" />
<glyph unicode="$" d="M102 1331h615v82q0 51 -36 87t-87 36h-369q-51 0 -87 -36t-36 -87v-82zM307 -102q0 -85 60 -145t145 -60t145 60t60 145t-60 144.5t-145 59.5t-145 -59.5t-60 -144.5zM307 467v659h1639v-446q0 -100 -73.5 -182.5t-172.5 -96.5l-1147 -149q-101 -12 -173.5 51t-72.5 164z M1126 -102q0 -85 60 -145t145 -60t145 60t60 145t-60 144.5t-145 59.5t-145 -59.5t-60 -144.5z" />
<glyph unicode="%" d="M295 1268l653 94q37 5 59.5 -18t16.5 -60l-92 -653l-213 213q-148 -148 -172 -353.5t80 -377.5q-73 46 -121 94q-115 115 -155.5 269.5t0 309t155.5 269.5zM1024 -57l92 655l213 -213q148 148 172 353.5t-80 375.5q69 -40 121 -92q115 -116 155.5 -270.5t0 -309 t-155.5 -270.5l213 -213l-655 -92q-37 -5 -59.5 17.5t-16.5 58.5z" />
<glyph unicode="&#x26;" d="M307 369v82q0 26 18 43.5t44 17.5h1310q26 0 44 -17.5t18 -43.5v-82q0 -25 -18 -43.5t-44 -18.5h-1310q-26 0 -44 18.5t-18 43.5zM307 1188v82q0 26 18 43.5t44 17.5h1310q26 0 44 -17.5t18 -43.5v-82q0 -25 -18 -43.5t-44 -18.5h-1310q-26 0 -44 18.5t-18 43.5zM471 778 v82q0 26 17.5 44t43.5 18h984q26 0 43.5 -18t17.5 -44v-82q0 -25 -17.5 -43t-43.5 -18h-984q-26 0 -43.5 18t-17.5 43zM614 -41v82q0 26 18 43.5t44 17.5h696q26 0 44 -17.5t18 -43.5v-82q0 -25 -18 -43t-44 -18h-696q-26 0 -44 18t-18 43z" />
<glyph unicode="'" d="M410 614q0 125 48.5 239t130.5 196.5t196 131t239 48.5t239 -48.5t196 -131t130.5 -196.5t48.5 -239q0 -166 -82 -307.5t-223.5 -224t-308.5 -82.5t-308.5 82.5t-223.5 224t-82 307.5z" />
<glyph unicode="(" d="M307 41v-82q0 -25 18 -43t44 -18h696q26 0 43.5 18t17.5 43v82q0 26 -17.5 43.5t-43.5 17.5h-696q-26 0 -44 -17.5t-18 -43.5zM307 369q0 -25 18 -43.5t44 -18.5h1310q26 0 44 18.5t18 43.5v82q0 26 -18 43.5t-44 17.5h-1310q-26 0 -44 -17.5t-18 -43.5v-82zM307 778 q0 -25 18 -43t44 -18h983q26 0 43.5 18t17.5 43v82q0 26 -17.5 44t-43.5 18h-983q-26 0 -44 -18t-18 -44v-82zM307 1188q0 -25 18 -43.5t44 -18.5h1310q26 0 44 18.5t18 43.5v82q0 26 -18 43.5t-44 17.5h-1310q-26 0 -44 -17.5t-18 -43.5v-82z" />
<glyph unicode=")" d="M307 369v82q0 26 18 43.5t44 17.5h1310q26 0 44 -17.5t18 -43.5v-82q0 -25 -18 -43.5t-44 -18.5h-1310q-26 0 -44 18.5t-18 43.5zM307 1188v82q0 26 18 43.5t44 17.5h1310q26 0 44 -17.5t18 -43.5v-82q0 -25 -18 -43.5t-44 -18.5h-1310q-26 0 -44 18.5t-18 43.5zM635 778 v82q0 26 17.5 44t43.5 18h983q26 0 44 -18t18 -44v-82q0 -25 -18 -43t-44 -18h-983q-26 0 -43.5 18t-17.5 43zM922 -41v82q0 26 17.5 43.5t43.5 17.5h696q26 0 44 -17.5t18 -43.5v-82q0 -25 -18 -43t-44 -18h-696q-26 0 -43.5 18t-17.5 43z" />
<glyph unicode="*" d="M85 830.5q18 56.5 151 56.5h526l164 499q40 126 98 126t98 -126l164 -499h526q133 0 151 -56.5t-89 -134.5l-426 -309l164 -502q40 -126 -7.5 -159.5t-154.5 43.5l-426 311l-426 -311q-107 -77 -154.5 -43.5t-7.5 159.5l164 502l-426 309q-107 78 -89 134.5z" />
<glyph unicode="+" d="M307 522v185q0 26 18.5 43.5t43.5 17.5h501v502q0 26 18.5 43.5t43.5 17.5h184q26 0 44 -17.5t18 -43.5v-502h501q26 0 44 -17.5t18 -43.5v-185q0 -25 -18 -43t-44 -18h-501v-502q0 -25 -18 -43t-44 -18h-184q-25 0 -43.5 18t-18.5 43v502h-501q-25 0 -43.5 18t-18.5 43z " />
<glyph unicode="," d="M410 233l540 721q31 40 74 40t74 -40l540 -721h-1228z" />
<glyph unicode="-" d="M178 874h299q0 -122 47.5 -233.5t128.5 -191.5t192.5 -127.5t233.5 -47.5q76 0 150 19q-197 52 -324 213t-127 368h301l-397 529q-22 31 -54 31t-55 -31zM1229 123v-246q0 -51 36 -87t87 -36h368q51 0 87 36t36 87v246q0 51 -36 87t-87 36h-368q-51 0 -87 -36t-36 -87z M1229 492q0 -51 36 -87t87 -36h368q51 0 87 36t36 87v245q0 51 -36 87t-87 36h-368q-51 0 -87 -36t-36 -87v-245zM1229 1106q0 -51 36 -87t87 -36h368q51 0 87 36t36 87v246q0 51 -36 87t-87 36h-368q-51 0 -87 -36t-36 -87v-246z" />
<glyph unicode="." d="M410 993h1228l-540 -721q-31 -40 -74 -40t-74 40z" />
<glyph unicode="/" d="M102 41v1393h1844v-1393q0 -101 -72.5 -173.5t-173.5 -72.5h-1352q-101 0 -173.5 72.5t-72.5 173.5zM778 246l549 362q31 19 31 47t-31 47l-549 363v-819z" />
<glyph unicode="0" d="M205 614q0 166 65 318t174.5 262t261 175t318.5 65t318.5 -65t261 -175t174.5 -262t65 -318t-65 -317.5t-174.5 -261.5t-261 -175t-318.5 -65t-318.5 65t-261 175t-174.5 261.5t-65 317.5zM542 658q0 -25 19 -44l346 -344q18 -18 45 -18q25 0 43 18l492 490q19 19 19 44 t-19 44l-57 57q-19 19 -44.5 19t-42.5 -19l-391 -389l-247 244q-17 19 -42.5 19t-44.5 -19l-57 -58q-19 -19 -19 -44z" />
<glyph unicode="1" d="M205 -266v964l637 772q89 110 185 109t181 -111l635 -770v-964h-614v696h-410v-696h-614z" />
<glyph unicode="2" d="M102 41v1393h1844v-1393q0 -100 -72.5 -173t-173.5 -73h-62v774l-475 576q-65 83 -137 83t-139 -83l-477 -576v-774h-62q-101 0 -173.5 73t-72.5 173zM819 -205v615h410v-615h-410z" />
<glyph unicode="3" d="M102 41v1393h1844v-1393q0 -100 -72.5 -173t-173.5 -73h-1352q-101 0 -173.5 73t-72.5 173zM307 920h1434v307h-1434v-307z" />
<glyph unicode="4" d="M102 41v1393h1844v-1393q0 -100 -72.5 -173t-173.5 -73h-164v232q0 83 -26.5 148.5t-72 109t-111 72t-140 41t-162.5 12.5t-162.5 -12.5t-140 -41t-111 -72t-72 -109t-26.5 -148.5v-232h-164q-101 0 -173.5 73t-72.5 173zM768 920q0 -153 60.5 -229.5t195.5 -76.5 q131 0 193.5 76t62.5 230q0 158 -59 232.5t-197 74.5q-256 0 -256 -307z" />
<glyph unicode="5" d="M102 41v1393h1844v-1393q0 -101 -72.5 -173.5t-173.5 -72.5h-1352q-101 0 -173.5 72.5t-72.5 173.5zM307 328h369v368h-369v-368zM307 860h369v369h-369v-369zM840 328h368v368h-368v-368zM840 860h368v369h-368v-369zM1372 860h369v369h-369v-369z" />
<glyph unicode="6" d="M102 41v1393h1844v-1393q0 -100 -72.5 -173t-173.5 -73h-1352q-101 0 -173.5 73t-72.5 173zM553 850q0 -97 39 -186q129 -275 377 -713q1 -2 4.5 -8t4.5 -7.5t4.5 -6.5t5 -7t4.5 -5.5t5.5 -5t6 -4t7 -3t8 -1.5t9.5 -1q16 0 27 7.5t16 15t16 26.5q231 431 363 702 q21 43 33 100.5t12 96.5q0 195 -138 333t-333 138t-333 -138t-138 -333zM797 838q0 95 66 162t161 67t161 -67t66 -162q0 -94 -66 -160t-161 -66t-161 66t-66 160z" />
<glyph unicode="7" d="M205 -41v901q0 26 17.5 44t43.5 18h144v-820h819v-143q0 -25 -18 -43t-44 -18h-901q-26 0 -43.5 18t-17.5 43zM614 369q0 -25 18 -43.5t44 -18.5h1106q26 0 43.5 18.5t17.5 43.5v901q0 26 -17.5 43.5t-43.5 17.5h-1106q-26 0 -44 -17.5t-18 -43.5v-901z" />
<glyph unicode="8" d="M131 856l653 651l95 -669q6 -37 -17 -59.5t-61 -18.5zM1169 391q-6 37 17 60.5t61 17.5l670 -96l-653 -652z" />
<glyph unicode="9" d="M295 1266q-6 37 17.5 60t60.5 17l669 -96l-651 -651zM1006 -18l651 651l96 -670q6 -36 -17.5 -59.5t-60.5 -18.5z" />
<glyph unicode=":" d="M0 -266q0 25 18 43t43 18h1926q26 0 43.5 -18t17.5 -43v-82q0 -26 -17.5 -44t-43.5 -18h-1926q-25 0 -43 18t-18 44v82zM410 123q0 -51 35.5 -87t86.5 -36h984q51 0 86.5 36t35.5 87v983q0 51 -35.5 87t-86.5 36h-984q-51 0 -86.5 -36t-35.5 -87v-983z" />
<glyph unicode=";" d="M0 1495q0 -26 17.5 -43.5t43.5 -17.5h1926q26 0 43.5 17.5t17.5 43.5v82q0 26 -17.5 43.5t-43.5 17.5h-1926q-26 0 -43.5 -17.5t-17.5 -43.5v-82zM410 123q0 -51 35.5 -87t86.5 -36h984q51 0 86.5 36t35.5 87v983q0 51 -35.5 87t-86.5 36h-984q-51 0 -86.5 -36t-35.5 -87 v-983z" />
<glyph unicode="&#x3c;" d="M644 613.5q0 43.5 40 74.5l721 541v-1229l-721 541q-40 29 -40 72.5z" />
<glyph unicode="=" d="M164 1065q67 184 215 297t332 113q183 0 331 -113t213 -297q-65 -183 -213.5 -296.5t-330.5 -113.5q-183 0 -331.5 113.5t-215.5 296.5zM307 41v-82q0 -25 18 -43t44 -18h696q26 0 43.5 18t17.5 43v82q0 26 -17.5 43.5t-43.5 17.5h-696q-26 0 -44 -17.5t-18 -43.5z M307 369q0 -25 18 -43.5t44 -18.5h1310q26 0 44 18.5t18 43.5v82q0 26 -18 43.5t-44 17.5h-1310q-26 0 -44 -17.5t-18 -43.5v-82zM436 1065q0 -113 80.5 -192.5t194.5 -79.5q113 0 192.5 79.5t79.5 192.5q0 114 -79.5 194t-192.5 80q-114 0 -194.5 -80t-80.5 -194zM573 1065 q0 -57 40.5 -96t97.5 -39t96 39t39 96t-39 97t-96 40t-97.5 -40t-40.5 -97zM1245 778q0 -25 18.5 -43t43.5 -18h372q26 0 44 18t18 43v82q0 26 -18 44t-44 18h-372q-25 0 -43.5 -18t-18.5 -44v-82zM1307 1188q0 -25 17.5 -43.5t43.5 -18.5h311q26 0 44 18.5t18 43.5v82 q0 26 -18 43.5t-44 17.5h-311q-26 0 -43.5 -17.5t-17.5 -43.5v-82z" />
<glyph unicode="&#x3e;" d="M643 0v1229l721 -541q41 -31 41 -74.5t-41 -72.5z" />
<glyph unicode="?" d="M205 612q0 167 65 319t174.5 262.5t261 175.5t318.5 65t318.5 -65t261 -175.5t174.5 -262.5t65 -319q0 -166 -65 -317.5t-174.5 -261.5t-261 -175t-318.5 -65t-318.5 65t-261 175t-174.5 261.5t-65 317.5zM758 1083l71 -155q70 34 117 51q53 20 105 20q56 0 82 -26 q26 -23 26 -66q0 -27 -6 -45q-3 -19 -16 -39q-20 -24 -35 -37q-9 -9 -49 -41q-32 -25 -58 -51q-19 -19 -39 -51q-16 -29 -22 -55q-9 -30 -6 -66v-61q0 -25 17.5 -43.5t43.5 -18.5h62q25 0 43 18.5t18 43.5v51q0 29 4 39q3 20 14 33q4 8 29 32q4 3 13 10.5t18 15.5t18 15 q32 26 68 58q27 27 47 57q16 23 31 66q8 31 8 80q0 60 -21 106q-22 51 -61 80q-38 33 -98 51q-52 16 -129 16q-37 0 -78 -6q-21 -3 -78 -20q-32 -10 -74 -27q-24 -11 -65 -35zM860 180q0 -68 48 -116t116 -48t116 48t48 116t-48 116t-116 48t-116 -48t-48 -116z" />
<glyph unicode="@" d="M102 41v901l504 176l29 168q9 54 68.5 101t125.5 47h390q65 0 122.5 -45t69.5 -99l29 -164l506 -184v-901q0 -101 -72.5 -173.5t-173.5 -72.5h-1352q-101 0 -173.5 72.5t-72.5 173.5zM512 512q0 -212 150 -362t362 -150t362 150t150 362t-150 362t-362 150t-362 -150 t-150 -362zM717 512q0 128 89.5 217.5t217.5 89.5t217.5 -89.5t89.5 -217.5t-89.5 -217.5t-217.5 -89.5t-217.5 89.5t-89.5 217.5z" />
<glyph unicode="A" d="M410 133q0 123 47.5 214t133 144t193.5 78t240 25t240 -25t193.5 -78t133 -144t47.5 -214v-440h-1228v440zM717 1167q0 369 307 369q165 0 236 -90.5t71 -278.5q0 -185 -74.5 -276.5t-232.5 -91.5q-162 0 -234.5 91.5t-72.5 276.5z" />
<glyph unicode="B" d="M496 -102h565q225 0 352 102q139 109 139 322q0 138 -72 234t-190 97h4q58 1 102 29q46 30 73 78.5t41 106.5t14 120q0 84 -30.5 152t-84.5 110q-109 82 -311 82h-602v-1433zM823 164v332h178q88 0 144.5 -40t56.5 -116q0 -94 -45 -139q-40 -37 -168 -37h-166zM823 745 v318h181q35 0 78 -10t57 -23q32 -29 32 -115q0 -42 -13 -73t-33.5 -49.5t-51.5 -29.5t-61.5 -14.5t-69.5 -3.5h-119z" />
<glyph unicode="C" d="M82 418l893 872l622 62q15 2 29 2q66 0 101 -36q34 -34 34 -98q0 -15 -2 -32l-61 -621l-891 -874zM1242 988.5q0 -63.5 44 -109.5q46 -44 109.5 -44t107.5 44q46 46 46 109.5t-46 107.5q-44 46 -107.5 46t-109.5 -46q-44 -44 -44 -107.5z" />
<glyph unicode="D" d="M410 123v82h1228v-82q0 -51 -35.5 -87t-86.5 -36h-984q-51 0 -86.5 36t-35.5 87zM410 1229h1228l-540 -721q-31 -40 -74 -40t-74 40z" />
<glyph unicode="E" d="M256.5 -153q-8.5 9 -8.5 23q0 16 10 38l150 352q19 44 55 97.5t69 84.5l912 914q37 35 88 35t86 -35l145 -146q37 -37 37 -88t-37 -86l-911 -913q-32 -32 -86 -68t-98 -55l-351 -152q-22 -10 -37 -10t-23.5 9z" />
<glyph unicode="F" d="M102 174v195h205v-195q0 -45 34 -79t79 -34h194v-204h-194q-131 0 -224.5 93.5t-93.5 223.5zM102 860v197q0 130 93.5 222.5t224.5 92.5h194v-205h-194q-46 0 -79.5 -33t-33.5 -77v-197h-205zM461 270q0 -23 16 -39t39 -16h1016q23 0 39 16t16 39v691q0 23 -16 38t-39 15 h-1016q-23 0 -39 -15t-16 -38v-691zM1434 61h194q45 0 79 34t34 79v195h205v-195q0 -130 -93.5 -223.5t-224.5 -93.5h-194v204zM1434 1167v205h194q131 0 224.5 -92.5t93.5 -222.5v-197h-205v197q0 44 -33.5 77t-79.5 33h-194z" />
<glyph unicode="G" d="M307 41v-82q0 -25 18 -43t44 -18h696q26 0 43.5 18t17.5 43v82q0 26 -17.5 43.5t-43.5 17.5h-696q-26 0 -44 -17.5t-18 -43.5zM307 369q0 -25 18 -43.5t44 -18.5h1310q26 0 44 18.5t18 43.5v82q0 26 -18 43.5t-44 17.5h-1310q-26 0 -44 -17.5t-18 -43.5v-82zM307 778 q0 -25 18 -43t44 -18h983q26 0 43.5 18t17.5 43v82q0 26 -17.5 44t-43.5 18h-983q-26 0 -44 -18t-18 -44v-82zM307 1188q0 -25 18 -43.5t44 -18.5h1310q26 0 44 18.5t18 43.5v82q0 26 -18 43.5t-44 17.5h-1310q-26 0 -44 -17.5t-18 -43.5v-82z" />
<glyph unicode="H" d="M205 881v82q0 25 18 43t43 18h246v-205h-246q-25 0 -43 18.5t-18 43.5zM614 266v1106q0 25 18.5 43.5t43.5 18.5h82q26 0 43.5 -18.5t17.5 -43.5v-348h553q26 0 44 -18t18 -43v-1106q0 -25 -18 -43.5t-44 -18.5h-82q-25 0 -43 18.5t-18 43.5v348h-553q-25 0 -43.5 18 t-18.5 43zM819 410h410v409h-410v-409zM1536 205v205h246q26 0 43.5 -18.5t17.5 -43.5v-82q0 -25 -17.5 -43t-43.5 -18h-246z" />
<glyph unicode="I" d="M754 -43q-1 -6 -1 -11q0 -18 11 -31q14 -17 39 -17h172q25 0 47.5 17.5t26.5 41.5l145 729q6 25 -8.5 42t-40.5 17h-170q-26 0 -48 -17t-26 -42zM973 1155q0 -75 47.5 -124.5t118.5 -49.5q72 0 120 50t48 126q0 74 -47 124t-119 50t-120 -50.5t-48 -125.5z" />
<glyph unicode="J" d="M253 759q0 -170 120 -290l245 -246q19 -19 44.5 -19t42.5 19l59 58q17 19 17 44t-17 44l-246 245q-62 60 -62 144.5t62 144.5q60 60 144.5 60t144.5 -60l246 -246q19 -19 44 -19t44 19l57 58q19 19 19 44t-19 44l-246 246q-120 120 -289.5 120t-289.5 -120t-120 -290z M831 470q0 25 19 44l57 57q19 19 44 19t44 -19l246 -245q60 -60 144.5 -60t146.5 60q60 60 60 144t-60 144l-248 246q-17 19 -17 44t17 44l59 58q17 19 42.5 19t44.5 -19l245 -246q120 -120 120 -290t-120 -290t-289.5 -120t-289.5 120l-246 246q-19 19 -19 44z" />
<glyph unicode="K" d="M410 922h1228l-135 -1084q-8 -60 -56.5 -102.5t-109.5 -42.5h-626q-61 0 -109.5 42.5t-56.5 102.5zM414 1327l1194 -287l22 95q5 19 5 38q1 39 -21 75q-32 52 -92 65l-908 219q-18 4 -34 4q-41 0 -78 -22q-52 -32 -66 -91z" />
<glyph unicode="L" d="M410 41v676h102v205q0 212 150 362t362 150t362 -150t150 -362v-205h102v-676q0 -101 -72 -173.5t-173 -72.5h-738q-101 0 -173 72.5t-72 173.5zM717 717h614v205q0 128 -89.5 217.5t-217.5 89.5t-217.5 -89.5t-89.5 -217.5v-205z" />
<glyph unicode="M" d="M102 41v1393h615l205 -351h1024v-1042q0 -100 -72.5 -173t-173.5 -73h-1352q-101 0 -173.5 73t-72.5 173z" />
<glyph unicode="N" d="M410 1333h1228l-743 -737l215 -588q8 -25 -3 -48t-34 -32l-78 -26q-11 -4 -21 -4q-13 0 -26 6q-23 11 -30 35z" />
<glyph unicode="O" d="M410 928q0 166 82 307.5t223.5 224t308.5 82.5t308.5 -82.5t223.5 -224t82 -307.5q0 -51 -15.5 -125t-43.5 -133l-473 -918q-13 -24 -20 -34.5t-22.5 -20.5t-35.5 -10q-15 0 -26 4t-21 16.5t-14 18.5t-15 26l-493 932q-49 117 -49 244zM727 913q0 -123 87 -210t210 -87 t210 87t87 210t-87 210t-210 87t-210 -87t-87 -210z" />
<glyph unicode="P" d="M185 613.5q0 55.5 57 93.5l352 194v-573l-352 192q-57 38 -57 93.5zM748 195h573l-193 -353q-38 -57 -93 -57t-93 57zM748 1034h573l-193 352q-38 57 -93 57t-93 -57zM1454 328l352 192q57 38 57 93.5t-57 93.5l-352 194v-573z" />
<glyph unicode="Q" d="M102 41v1393h1844v-1393q0 -101 -72.5 -173.5t-173.5 -72.5h-1352q-101 0 -173.5 72.5t-72.5 173.5z" />
<glyph unicode="R" d="M331 430q49 -184 187 -321q138 -138 322 -187q92 -24 184 -24t185 24q185 49 323 187l-146 143q-151 -149 -362 -148.5t-362 148.5q-149 151 -149.5 362.5t149.5 362.5q97 97 226 132q67 18 135 18l123 -15q129 -32 228 -125l-217 -217l596 -84q33 -5 53 16q16 16 16 40 q0 7 -1 14l-84 594l-217 -217q-138 132 -321 177q-87 21 -174 21q-95 1 -191 -25q-182 -50 -316 -186q-138 -137 -187 -321q-24 -92 -24 -184.5t24 -184.5z" />
<glyph unicode="S" d="M225 -67q0 -25 19 -42l57 -59q17 -17 43 -17t43 17l348 348q19 19 19 44t-19 42l-57 60q-19 17 -44 17t-44 -17l-346 -349q-19 -19 -19 -44zM594 799q0 167 82.5 308.5t224 223.5t307.5 82q125 0 239 -48.5t196.5 -130.5t131 -196t48.5 -239t-48.5 -239t-131 -196.5 t-196.5 -131t-239 -48.5t-238.5 48.5t-195.5 131t-131 196.5t-49 239zM799 799q0 -169 120 -289.5t289 -120.5t289.5 120.5t120.5 289.5t-120.5 289t-289.5 120t-289 -120t-120 -289z" />
<glyph unicode="T" d="M116 966q-15 58 -15 115q0 58 16 115l235 -235q34 -34 81 -34t79 34l160 157q32 34 32 81t-32 79l-236 235q56 16 115 16q56 0 114 -15q118 -30 205 -117t117 -204q15 -57 15 -112q0 -59 -17 -118l928 -912q32 -32 32 -78.5t-32 -78.5l-160 -160q-32 -32 -79 -32t-79 32 l-927 911q-56 -16 -114 -16q-58 -1 -116 15q-118 30 -205 118q-87 86 -117 204z" />
<glyph unicode="U" d="M410 20v82h1228v-82q0 -51 -35.5 -86.5t-86.5 -35.5h-984q-51 0 -86.5 35.5t-35.5 86.5zM551 754q0 -209 86 -312q114 -135 379 -135q279 0 399 154q82 102 82 301v569h-285v-571q0 -59 -5 -91.5t-23 -62t-56.5 -41.5t-101.5 -12q-66 0 -105.5 13t-57.5 44t-22.5 62 t-4.5 88v571h-285v-577z" />
<glyph unicode="V" d="M295 1268l653 94q7 1 13 1q29 0 47 -19q18 -18 17 -45q0 -7 -1 -15l-92 -653l-213 213q-148 -148 -172 -354q-4 -39 -5 -75q0 -162 85 -302q-73 46 -121 94q-116 115 -156 269q-20 77 -20 154.5t20 155.5q40 154 156 269zM1024 -57l92 655l213 -213q148 147 172 353 q5 39 5 76q0 162 -85 300q69 -40 121 -92q116 -116 156 -270q20 -77 20 -154.5t-20 -155.5q-40 -154 -156 -270l213 -213l-90 -12l-565 -80q-8 -1 -15 -1q-27 0 -44.5 17.5t-17.5 44.5q0 7 1 15z" />
<glyph unicode="W" d="M256.5 -153q-8.5 9 -8.5 23q0 16 10 38l150 352q19 44 55 97.5t69 84.5l912 914q37 35 88 35t86 -35l145 -146q37 -37 37 -88t-37 -86l-911 -913q-32 -32 -86 -68t-98 -55l-351 -152q-22 -10 -37 -10t-23.5 9zM1151 127v82q0 26 17.5 43.5t43.5 17.5h144v144 q0 26 17.5 43.5t43.5 17.5h82q25 0 43.5 -17.5t18.5 -43.5v-144h143q25 0 43 -17.5t18 -43.5v-82q0 -25 -18 -43t-43 -18h-143v-144q0 -25 -18.5 -43t-43.5 -18h-82q-26 0 -43.5 18t-17.5 43v144h-144q-26 0 -43.5 18t-17.5 43z" />
<glyph unicode="X" d="M205 -297v1823h1638v-963q0 -101 -72.5 -173.5t-173.5 -72.5h-778z" />
<glyph unicode="Y" d="M205 614q100 274 322.5 444.5t496.5 170.5q210 0 397 -107l244 244q19 19 44 19t44 -19l57 -57q19 -19 19 -44t-19 -42l-1361 -1362q-17 -19 -42.5 -19t-44.5 19l-57 57q-19 19 -19 44t19 44l191 191q-199 163 -291 417zM614 614q0 -122 70 -229l152 152q-17 39 -17 77 q0 85 60 145t145 60q38 0 78 -16l149 149q-101 72 -227 72q-169 0 -289.5 -120.5t-120.5 -289.5zM780 37l172 174q34 -6 72 -6q169 0 289.5 119.5t120.5 289.5q0 28 -7 72l238 236q111 -128 178 -308q-100 -274 -322.5 -444t-496.5 -170q-129 0 -244 37z" />
<glyph unicode="Z" d="M207 838q0 167 82.5 308.5t224 223.5t307.5 82q125 0 239 -48.5t196.5 -130.5t131 -196t48.5 -239t-48.5 -239t-131 -196.5t-196.5 -131t-239 -48.5t-238.5 48.5t-195.5 131t-131 196.5t-49 239zM514 791q0 -25 18 -43.5t43 -18.5h492q26 0 43.5 18.5t17.5 43.5v81 q0 26 -17.5 44t-43.5 18h-492q-25 0 -43 -18t-18 -44v-81zM1312 187q0 25 19 42l58 60q19 17 44 17t42 -17l348 -348q19 -19 19 -44t-19 -42l-58 -60q-19 -17 -44 -17t-44 17l-346 348q-19 19 -19 44z" />
<glyph unicode="[" d="M0 -348q0 -26 18 -44t43 -18h82q26 0 44 18t18 44v1925q0 26 -18 43.5t-44 17.5h-82q-25 0 -43 -17.5t-18 -43.5v-1925zM410 123q0 -51 35.5 -87t86.5 -36h984q51 0 86.5 36t35.5 87v983q0 51 -35.5 87t-86.5 36h-984q-51 0 -86.5 -36t-35.5 -87v-983z" />
<glyph unicode="\" d="M0 143v1188h2048v-1188q0 -101 -73 -173t-173 -72h-1556q-102 0 -174 72t-72 173zM328 225h1392v254l-237 152l-180 -152l-525 525l-450 -476v-303z" />
<glyph unicode="]" d="M410 123q0 -51 35.5 -87t86.5 -36h984q51 0 86.5 36t35.5 87v983q0 51 -35.5 87t-86.5 36h-984q-51 0 -86.5 -36t-35.5 -87v-983zM1843 -348v1925q0 26 18 43.5t44 17.5h82q26 0 43.5 -17.5t17.5 -43.5v-1925q0 -26 -17.5 -44t-43.5 -18h-82q-26 0 -44 18t-18 44z" />
<glyph unicode="^" horiz-adv-x="1228" />
<glyph unicode="_" d="M205 522q0 -25 17.5 -43t43.5 -18h1516q26 0 43.5 18t17.5 43v185q0 26 -17.5 43.5t-43.5 17.5h-1516q-26 0 -43.5 -17.5t-17.5 -43.5v-185z" />
<glyph unicode="a" d="M102 41v1393h1844v-1393q0 -101 -72.5 -173.5t-173.5 -72.5h-1352q-101 0 -173.5 72.5t-72.5 173.5zM307 41q0 -17 12 -29t29 -12h1352q17 0 29 12t12 29v1188h-1434v-1188zM430 182q0 -25 17 -42t42 -17h1070q25 0 42 17t17 42v178q0 25 -13.5 53.5t-33.5 41.5l-144 108 q-20 14 -46 12t-44 -20l-92 -92q-19 -19 -42 -17.5t-38 21.5l-342 440q-15 20 -36 20t-35 -20l-287 -381q-35 -53 -35 -106v-238z" />
<glyph unicode="b" d="M102 -41v1065h1844v-1065q0 -101 -72.5 -173.5t-173.5 -72.5h-1352q-101 0 -173.5 72.5t-72.5 173.5zM102 1208q0 -26 18 -43.5t44 -17.5h246q26 0 43.5 17.5t17.5 43.5v246q0 26 -17.5 44t-43.5 18h-246q-26 0 -44 -18t-18 -44v-246zM307 -41q0 -17 12 -29t29 -12h1352 q17 0 29 12t12 29v860h-1434v-860zM430 96q0 -23 16 -39t39 -16h1078q23 0 39 16t16 39v144q0 23 -13.5 47.5t-33.5 36.5l-144 92q-20 12 -45.5 10.5t-42.5 -16.5l-96 -80q-17 -15 -40 -14t-38 18l-342 375q-15 17 -36.5 17t-36.5 -17l-283 -324q-15 -17 -26 -44.5 t-11 -49.5v-195zM594 1208q0 -26 17.5 -43.5t43.5 -17.5h246q26 0 44 17.5t18 43.5v246q0 26 -18 44t-44 18h-246q-26 0 -43.5 -18t-17.5 -44v-246zM1085 1208q0 -26 18 -43.5t44 -17.5h246q26 0 43.5 17.5t17.5 43.5v246q0 26 -17.5 44t-43.5 18h-246q-26 0 -44 -18 t-18 -44v-246zM1577 1208q0 -26 17.5 -43.5t43.5 -17.5h246q26 0 44 17.5t18 43.5v246q0 26 -18 44t-44 18h-246q-26 0 -43.5 -18t-17.5 -44v-246z" />
<glyph unicode="c" d="M102 41v1393h615l205 -349h1024v-1044q0 -101 -72.5 -173.5t-173.5 -72.5h-1352q-101 0 -173.5 72.5t-72.5 173.5zM307 -20h369v368h-369v-368zM307 512h369v369h-369v-369zM840 -20h368v368h-368v-368zM840 512h368v369h-368v-369zM1372 512h369v369h-369v-369z" />
<glyph unicode="d" d="M0 1106l287 369h82v-1475q0 -17 12 -29t29 -12h1474v-82l-368 -287v164h-1106q-101 0 -173.5 72.5t-72.5 173.5v1106h-164zM532 184q0 -25 18 -43t44 -18h246q26 0 43.5 18t17.5 43v246q0 26 -17.5 44t-43.5 18h-246q-26 0 -44 -18t-18 -44v-246zM532 676q0 -26 18 -44 t44 -18h246q26 0 43.5 18t17.5 44v246q0 26 -17.5 43.5t-43.5 17.5h-246q-26 0 -44 -17.5t-18 -43.5v-246zM532 1167q0 -26 18 -43.5t44 -17.5h246q26 0 43.5 17.5t17.5 43.5v246q0 26 -17.5 44t-43.5 18h-246q-26 0 -44 -18t-18 -44v-246zM1024 184q0 -25 17.5 -43 t43.5 -18h246q26 0 44 18t18 43v246q0 26 -18 44t-44 18h-246q-26 0 -43.5 -18t-17.5 -44v-246zM1024 676q0 -26 17.5 -44t43.5 -18h246q26 0 44 18t18 44v246q0 26 -18 43.5t-44 17.5h-246q-26 0 -43.5 -17.5t-17.5 -43.5v-246zM1024 1167q0 -26 17.5 -43.5t43.5 -17.5h246 q26 0 44 17.5t18 43.5v246q0 26 -18 44t-44 18h-246q-26 0 -43.5 -18t-17.5 -44v-246zM1516 184q0 -25 17.5 -43t43.5 -18h246q26 0 43.5 18t17.5 43v246q0 26 -17.5 44t-43.5 18h-246q-26 0 -43.5 -18t-17.5 -44v-246zM1516 676q0 -26 17.5 -44t43.5 -18h246q26 0 43.5 18 t17.5 44v246q0 26 -17.5 43.5t-43.5 17.5h-246q-26 0 -43.5 -17.5t-17.5 -43.5v-246zM1516 1167q0 -26 17.5 -43.5t43.5 -17.5h246q26 0 43.5 17.5t17.5 43.5v246q0 26 -17.5 44t-43.5 18h-246q-26 0 -43.5 -18t-17.5 -44v-246z" />
<glyph unicode="e" d="M307 -61v983l615 614h819v-1597q0 -101 -72.5 -173.5t-173.5 -72.5h-942q-101 0 -173.5 72.5t-72.5 173.5zM512 -61q0 -17 12 -29t29 -12h942q17 0 29 12t12 29v1392h-530l-2 -2v-489h-490l-2 -2v-899zM635 164q0 -25 17.5 -43.5t43.5 -18.5h451q26 0 43.5 18.5 t17.5 43.5v82q0 26 -17.5 43.5t-43.5 17.5h-451q-26 0 -43.5 -17.5t-17.5 -43.5v-82zM635 573q0 -25 17.5 -43t43.5 -18h656q26 0 43.5 18t17.5 43v82q0 26 -17.5 44t-43.5 18h-656q-26 0 -43.5 -18t-17.5 -44v-82z" />
<glyph unicode="f" d="M102 41v1393h1844v-1393q0 -101 -72.5 -173.5t-173.5 -72.5h-1352q-101 0 -173.5 72.5t-72.5 173.5zM307 41q0 -17 12 -29t29 -12h1352q17 0 29 12t12 29v655h-1434v-655zM307 836l47 24l291 160q20 9 20 24.5t-20 24.5l-291 160l-47 24v-417z" />
<glyph unicode="g" d="M117 -61v1597h1229v-1597q0 -101 -72.5 -173.5t-173.5 -72.5h-738q-101 0 -173 72.5t-72 173.5zM322 -61q0 -17 11.5 -29t28.5 -12h738q17 0 29 12t12 29v1392h-819v-1392zM444 164v82q0 26 18 43.5t44 17.5h328q26 0 43.5 -17.5t17.5 -43.5v-82q0 -25 -17.5 -43.5 t-43.5 -18.5h-328q-26 0 -44 18.5t-18 43.5zM444 573v82q0 26 18 44t44 18h450q26 0 44 -18t18 -44v-82q0 -25 -18 -43t-44 -18h-450q-26 0 -44 18t-18 43zM444 983v82q0 26 18 43.5t44 17.5h328q26 0 43.5 -17.5t17.5 -43.5v-82q0 -25 -17.5 -43t-43.5 -18h-328 q-26 0 -44 18t-18 43zM1550 922v614l361 -270q20 -15 20 -37t-20 -37z" />
<glyph unicode="h" d="M102 41v1393h1844v-1393q0 -101 -72.5 -173.5t-173.5 -72.5h-1352q-101 0 -173.5 72.5t-72.5 173.5zM307 41q0 -17 12 -29t29 -12h1352q17 0 29 12t12 29v1188h-1434v-1188zM430 184v123q0 26 18 44t44 18h122q26 0 44 -18t18 -44v-123q0 -26 -18 -43.5t-44 -17.5h-122 q-26 0 -44 17.5t-18 43.5zM430 553v123q0 26 18 43.5t44 17.5h122q26 0 44 -17.5t18 -43.5v-123q0 -26 -18 -43.5t-44 -17.5h-122q-26 0 -44 17.5t-18 43.5zM430 922v122q0 26 18 44t44 18h122q26 0 44 -18t18 -44v-122q0 -26 -18 -44t-44 -18h-122q-26 0 -44 18t-18 44z M1372 184v123q0 26 18 44t44 18h122q26 0 44 -18t18 -44v-123q0 -26 -18 -43.5t-44 -17.5h-122q-26 0 -44 17.5t-18 43.5zM1372 553v123q0 26 18 43.5t44 17.5h122q26 0 44 -17.5t18 -43.5v-123q0 -26 -18 -43.5t-44 -17.5h-122q-26 0 -44 17.5t-18 43.5zM1372 922v122 q0 26 18 44t44 18h122q26 0 44 -18t18 -44v-122q0 -26 -18 -44t-44 -18h-122q-26 0 -44 18t-18 44z" />
<glyph unicode="i" d="M205 612q0 167 65 319t174.5 262.5t261 175.5t318.5 65t318.5 -65t261 -175.5t174.5 -262.5t65 -319q0 -166 -65 -317.5t-174.5 -261.5t-261 -175t-318.5 -65t-318.5 65t-261 175t-174.5 261.5t-65 317.5zM860 981q0 -67 48 -115.5t116 -48.5t116 48.5t48 115.5 q0 69 -48 116.5t-116 47.5t-116 -47.5t-48 -116.5zM922 141q0 -25 17.5 -43t43.5 -18h82q26 0 43.5 18t17.5 43v430q0 26 -17.5 44t-43.5 18h-82q-26 0 -43.5 -18t-17.5 -44v-430z" />
<glyph unicode="j" d="M305 113q0 86 60 145t145 59t145 -59t60 -145q0 -85 -60 -145t-145 -60t-145 60t-60 145zM408 795l8 -205h20q156 0 288.5 -77t210 -209.5t77.5 -287.5h205q0 211 -105 390.5t-284.5 284t-391.5 104.5h-28zM412 1116h24q224 0 428 -87.5t351.5 -235t235 -351t87.5 -426.5 v-18h205v18q0 177 -47 346t-131.5 312t-205 263.5t-264 205t-313 131.5t-346.5 47h-24v-205z" />
<glyph unicode="k" d="M102 41v1393h1844v-1393q0 -101 -72.5 -173.5t-173.5 -72.5h-1352q-101 0 -173.5 72.5t-72.5 173.5zM307 41q0 -17 12 -29t29 -12h1352q17 0 29 12t12 29v1188h-1434v-1188zM553 614q0 195 138 333t333 138t333 -138t138 -333t-138 -333t-333 -138t-333 138t-138 333z M840 430q0 -17 12 -29t29 -12h327q17 0 29 12t12 29v82q0 17 -12 29t-29 12h-204v287q0 17 -12 29t-29 12h-82q-17 0 -29 -12t-12 -29v-410z" />
<glyph unicode="l" d="M410 41v676h102v205q0 212 150 362t362 150q104 0 198 -40t164 -110l-145 -145q-90 90 -217 90q-128 0 -217.5 -89.5t-89.5 -217.5v-205h921v-676q0 -101 -72 -173.5t-173 -72.5h-738q-101 0 -173 72.5t-72 173.5z" />
<glyph unicode="m" d="M102 39v1393h1844v-1393q0 -100 -72.5 -173t-173.5 -73h-1352q-101 0 -173.5 73t-72.5 173zM471 1087q0 -51 33.5 -83.5t89.5 -32.5q57 0 92 33t35 83q-2 52 -35.5 84.5t-89.5 32.5t-90.5 -32.5t-34.5 -84.5zM477 121h236v758h-236v-758zM895 879q6 -210 6 -242v-516h236 v436q0 43 6 59q16 37 46.5 63t74.5 26q118 0 118 -164v-420h236v448q0 160 -74.5 243t-195.5 83q-85 0 -144.5 -38t-89.5 -85h-4l-12 107h-203z" />
<glyph unicode="n" d="M68 743l370 383h346l-491 -510l491 -514h-344l-374 387q-50 53 -50 127t52 127zM1264 102l491 514l-491 510h346l370 -383q51 -52 51 -126t-51 -128l-372 -387h-344z" />
<glyph unicode="o" d="M461 901q0 152 75.5 281.5t205 205.5t282.5 76t282.5 -76t205 -205.5t75.5 -281.5q0 -47 -14 -114t-41 -121l-432 -842q-16 -31 -30.5 -45.5t-41.5 -14.5q-18 0 -32 9.5t-20 18.5t-18 32l-452 854q-45 106 -45 223zM752 887q0 -113 79 -193t193 -80t193 80t79 193 q0 114 -79 193t-193 79t-193 -79t-79 -193z" />
<glyph unicode="p" d="M307 -61v983l615 614h819v-1597q0 -101 -72.5 -173.5t-173.5 -72.5h-942q-101 0 -173.5 72.5t-72.5 173.5zM512 -61q0 -17 12 -29t29 -12h942q17 0 29 12t12 29v163h-758q-26 0 -43.5 18.5t-17.5 43.5v287q0 26 17.5 43.5t43.5 17.5h758v819h-530l-2 -2v-489h-490l-2 -2 v-899z" />
<glyph unicode="q" d="M205 614q0 167 65 319t174.5 261.5t261 174.5t318.5 65t318.5 -65t261 -174.5t174.5 -261.5t65 -319t-65 -318.5t-174.5 -261t-261 -174.5t-318.5 -65t-318.5 65t-261 174.5t-174.5 261t-65 318.5zM786 205l551 362q29 19 29 47.5t-29 47.5l-551 362v-819z" />
<glyph unicode="r" d="M227 756l84 594l217 -217q138 132 321 177q87 21 174 21q95 1 191 -25q182 -50 316 -186q138 -137 187 -321q24 -92 24 -184q0 -93 -24 -185q-49 -184 -187 -321q-138 -138 -322 -187q-92 -24 -184 -24l-184 24q-184 49 -322 187l144 143q151 -149 362 -148.5t362 148.5 q149 151 149 362.5t-149 362.5q-97 97 -226 132q-67 18 -135 18l-123 -15q-129 -32 -228 -125l217 -217l-596 -84q-33 -5 -53 16q-16 16 -16 40q0 7 1 14z" />
<glyph unicode="s" d="M176 1333q-1 7 -1 13q0 28 19 46q18 18 45 18q7 0 15 -1l653 -92l-243 -246q237 -232 358 -498q120 262 360 498l-243 246l653 92q8 1 15 1q27 0 44.5 -17.5t17.5 -44.5q0 -7 -1 -15l-92 -653l-248 246q-51 -50 -98.5 -104.5t-105 -136.5t-99.5 -163.5t-70.5 -183.5 t-28.5 -199v-321h-206v321q0 97 -28.5 199t-70.5 183.5t-99.5 163.5t-105 136.5t-98.5 104.5l-248 -246z" />
<glyph unicode="t" d="M233 102q0 167 65 319t174.5 261.5t261.5 174.5t319 65v409l721 -540q41 -29 41 -73t-41 -73l-721 -543v410q-283 0 -504 -173t-289 -441q-27 111 -27 204z" />
<glyph unicode="u" d="M410 0h1228l-540 721q-31 40 -74 40t-74 -40zM410 1147v82h1228v-82q0 -51 -35.5 -87t-86.5 -36h-984q-51 0 -86.5 36t-35.5 87z" />
<glyph unicode="v" d="M193 270.5q0 211.5 149 360.5l745 745q91 91 217.5 91t217.5 -91q89 -89 89 -216t-89 -216l-658 -655l-49 -49q-17 -19 -42 -19t-44 19l-57 57q-19 19 -19 44t19 42l57 59h2l645 648q31 29 31 71.5t-31 71.5q-29 29 -71.5 29t-71.5 -29l-746 -746q-91 -91 -91 -217 t91 -217q89 -89 216.5 -89t216.5 89l774 774q17 19 42 19t44 -19l57 -57q19 -19 19 -44t-19 -42l-774 -774q-149 -149 -360.5 -149t-360.5 149t-149 360.5z" />
<glyph unicode="w" d="M205 -143v901q0 26 18 43.5t43 17.5h144v-819h819v-143q0 -25 -18 -43.5t-44 -18.5h-901q-25 0 -43 18.5t-18 43.5zM614 266v1106q0 26 18.5 44t43.5 18h1106q26 0 43.5 -18t17.5 -44v-1106q0 -25 -17.5 -43t-43.5 -18h-1106q-25 0 -43.5 18t-18.5 43zM819 410h819v819 h-819v-819z" />
<glyph unicode="x" d="M434 217q0 26 19 43l354 354l-354 357q-19 17 -19 43t19 43l129 131q19 17 44 17t44 -17l354 -354l354 354q19 17 44 17t44 -17l129 -131q19 -17 19 -43t-19 -43l-354 -357l354 -354q19 -17 19 -43t-19 -43l-129 -131q-19 -17 -44 -17t-44 17l-354 354l-354 -354 q-19 -17 -44 -17t-44 17l-129 131q-19 17 -19 43z" />
<glyph unicode="y" d="M205 614q100 274 322.5 444.5t496.5 170.5t496.5 -170.5t322.5 -444.5q-100 -274 -322.5 -444t-496.5 -170t-496.5 170t-322.5 444zM614 614q0 -169 120.5 -289t289.5 -120t289.5 120t120.5 289t-120.5 289.5t-289.5 120.5t-289.5 -120.5t-120.5 -289.5zM819 614 q0 -85 60 -144.5t145 -59.5t145 59.5t60 144.5t-60 145t-145 60t-145 -60t-60 -145z" />
<glyph unicode="z" d="M207 838q0 167 82.5 308.5t224 223.5t307.5 82q125 0 239 -48.5t196.5 -130.5t131 -196t48.5 -239t-48.5 -239t-131 -196.5t-196.5 -131t-239 -48.5t-238.5 48.5t-195.5 131t-131 196.5t-49 239zM514 791q0 -25 18 -43.5t43 -18.5h144v-143q0 -25 18 -43.5t43 -18.5h82 q26 0 44 18.5t18 43.5v143h143q26 0 43.5 18.5t17.5 43.5v81q0 26 -17.5 44t-43.5 18h-143v143q0 26 -18 44t-44 18h-82q-25 0 -43 -18t-18 -44v-143h-144q-25 0 -43 -18t-18 -44v-81zM1312 187q0 25 19 42l58 60q19 17 44 17t42 -17l348 -348q19 -19 19 -44t-19 -42 l-58 -60q-19 -17 -44 -17t-44 17l-346 348q-19 19 -19 44z" />
<glyph unicode="{" d="M410 123v983q0 51 35.5 87t86.5 36h246v-1229h-246q-51 0 -86.5 36t-35.5 87zM922 -348v1925q0 26 18 43.5t43 17.5h82q26 0 43.5 -17.5t17.5 -43.5v-1925q0 -25 -17.5 -43.5t-43.5 -18.5h-82q-25 0 -43 18.5t-18 43.5zM1270 0v1229h246q51 0 86.5 -36t35.5 -87v-983 q0 -51 -35.5 -87t-86.5 -36h-246z" />
<glyph unicode="|" d="M307 -164v1802h1434v-1802q0 -101 -72.5 -173.5t-173.5 -72.5h-942q-101 0 -173.5 72.5t-72.5 173.5zM635 -20q0 -26 17.5 -44t43.5 -18h656q26 0 43.5 18t17.5 44v239q0 78 -30 136t-84.5 91.5t-122.5 49.5t-152 16t-152 -16t-122.5 -49.5t-84.5 -91.5t-30 -136v-239z M838 883q0 -111 44.5 -167.5t141.5 -56.5q186 0 186 224q0 113 -43.5 168t-142.5 55q-186 0 -186 -223z" />
<glyph unicode="}" d="M0 569v82q0 25 18 43.5t43 18.5h1926q26 0 43.5 -18.5t17.5 -43.5v-82q0 -26 -17.5 -43.5t-43.5 -17.5h-1926q-25 0 -43 17.5t-18 43.5zM410 123v246h1228v-246q0 -51 -35.5 -87t-86.5 -36h-984q-51 0 -86.5 36t-35.5 87zM410 860v246q0 51 35.5 87t86.5 36h984 q51 0 86.5 -36t35.5 -87v-246h-1228z" />
<glyph unicode="~" d="M92 0h295l107 246h378l23 -246h287l-168 1227h-320zM594 463l209 473l53 -473h-262zM1249 240q0 -125 72 -191q67 -67 190 -67q91 0 166.5 41.5t118.5 123.5v-147h148v582q0 171 -82.5 247t-251.5 76q-211 0 -322 -125l86 -98q46 49 100.5 69.5t129.5 20.5 q103 0 142.5 -44t39.5 -159v-45h-127q-205 0 -307 -71q-103 -73 -103 -213zM1413 246q0 94 55.5 125.5t173.5 31.5h146q-1 -73 -24.5 -130.5t-61 -91t-80.5 -51t-88 -17.5q-121 0 -121 133z" />
<glyph unicode="&#xa1;" d="M107.5 -181q-37.5 63 11.5 152l786 1413q49 89 119 89t119 -89l786 -1413q49 -89 11.5 -152t-138.5 -63h-1556q-101 0 -138.5 63zM860 104q0 -67 48 -115t116 -48t116 48t48 115q0 68 -48 116t-116 48t-116 -48t-48 -116zM922 473q0 -26 17.5 -43.5t43.5 -17.5h82 q26 0 43.5 17.5t17.5 43.5v430q0 25 -17.5 43.5t-43.5 18.5h-82q-26 0 -43.5 -18.5t-17.5 -43.5v-430z" />
<glyph unicode="&#xa2;" d="M102 41v778h1229v-1024h-983q-101 0 -173.5 72.5t-72.5 173.5zM102 942v492h1844v-492h-1844zM1454 -205v1024h492v-778q0 -101 -72.5 -173.5t-173.5 -72.5h-246z" />
<glyph unicode="&#xa3;" d="M102 41v778h492v-1024h-246q-101 0 -173.5 72.5t-72.5 173.5zM102 942v492h1844v-492h-1844zM717 -205v1024h1229v-778q0 -101 -72.5 -173.5t-173.5 -72.5h-983z" />
<glyph unicode="&#xa4;" d="M205 1290v82q0 26 17.5 44t43.5 18h492q26 0 43.5 -18t17.5 -44v-82q0 -26 -17.5 -43.5t-43.5 -17.5h-144v-348q0 -26 -17.5 -44t-43.5 -18h-82q-26 0 -43.5 18t-17.5 44v348h-144q-26 0 -43.5 17.5t-17.5 43.5zM256.5 -153q-17.5 18 1.5 61l150 350q20 45 55.5 99 t68.5 85l912 912q37 37 88 37t86 -37l145 -146q37 -35 37 -86t-37 -88l-911 -911q-33 -33 -87 -69.5t-97 -55.5l-351 -150q-43 -19 -60.5 -1z" />
<glyph unicode="&#xa5;" d="M201 430q0 -51 35.5 -87t87.5 -36h368q51 0 87 36t36 87v369q0 51 -36 87t-87 36h-368q-52 0 -87.5 -36t-35.5 -87v-369zM920 -41q0 -25 18 -43t43 -18h82q26 0 43.5 18t17.5 43v1311q0 26 -17.5 43.5t-43.5 17.5h-82q-25 0 -43 -17.5t-18 -43.5v-1311zM1235 430 q0 -51 35.5 -87t87.5 -36h368q51 0 87 36t36 87v369q0 51 -36 87t-87 36h-368q-52 0 -87.5 -36t-35.5 -87v-369z" />
<glyph unicode="&#xa6;" horiz-adv-x="1228" />
<glyph unicode="&#xa7;" d="M331 364q0 25 19 44l631 630q17 17 43 17t43 -17l631 -630q19 -19 19 -44t-19 -42l-131 -132q-17 -19 -42 -19t-44 19l-457 457l-457 -457q-19 -19 -44 -19t-42 19l-131 132q-19 17 -19 42z" />
<glyph unicode="&#xa9;" horiz-adv-x="1228" />
<glyph unicode="&#xab;" d="M102 -78v740h492v-986h-246q-101 0 -173.5 73t-72.5 173zM459 1153q65 182 214 296t331 114q183 0 331 -113.5t215 -296.5q-67 -184 -214.5 -297t-331.5 -113q-183 0 -331.5 113.5t-213.5 296.5zM717 -324v986h573v-986h-573zM731 1153q0 -114 80 -194t193 -80 q114 0 194 80t80 194q0 113 -80 192.5t-194 79.5q-113 0 -193 -80t-80 -192zM868 1153q0 -57 40 -97t96 -40q57 0 97 40t40 97q0 56 -40 95.5t-97 39.5q-56 0 -96 -40t-40 -95zM1413 -324v986h533v-740q0 -100 -72.5 -173t-173.5 -73h-287z" />
<glyph unicode="&#xac;" d="M102 614q0 188 73 358.5t196.5 294t294 196.5t358.5 73t358.5 -73t294 -196.5t196.5 -294t73 -358.5t-73 -358.5t-196.5 -294t-294 -196t-358.5 -72.5t-358.5 72.5t-294 196t-196.5 294t-73 358.5zM307 614q0 -145 57 -278t153 -228.5t228.5 -152.5t278.5 -57t278.5 57 t228.5 152.5t153 228.5t57 278t-57 278t-153 229t-229 153t-278 57t-278 -57t-229 -153t-153 -229t-57 -278zM430 614q0 161 79.5 298t216.5 216.5t298 79.5t298 -79.5t216.5 -216.5t79.5 -298t-79.5 -298t-216.5 -216.5t-298 -79.5t-298 79.5t-216.5 216.5t-79.5 298z M1014 774q63 0 106 -43t45 -106h301q-2 188 -133.5 319t-318.5 131v-301z" />
<glyph unicode="&#xad;" d="M178 874h299q0 -122 47.5 -233.5t128.5 -191.5t192.5 -127.5t233.5 -47.5q76 0 150 19q-197 52 -324 213t-127 368h301l-397 529q-22 31 -54 31t-55 -31zM1229 123v-246q0 -51 36 -87t87 -36h368q51 0 87 36t36 87v246q0 51 -36 87t-87 36h-368q-51 0 -87 -36t-36 -87z M1229 492q0 -51 36 -87t87 -36h368q51 0 87 36t36 87v245q0 51 -36 87t-87 36h-368q-51 0 -87 -36t-36 -87v-245zM1229 1106q0 -51 36 -87t87 -36h368q51 0 87 36t36 87v246q0 51 -36 87t-87 36h-368q-51 0 -87 -36t-36 -87v-246z" />
<glyph unicode="&#xae;" d="M102 154v1167h1844v-1167q0 -101 -72.5 -173.5t-173.5 -72.5h-1352q-101 0 -173.5 72.5t-72.5 173.5zM193 1026l653 -692q68 -68 158 -68h2q88 0 155 64l692 694l-143 143l-694 -692q-3 -6 -10.5 -6t-10.5 6l-655 690z" />
<glyph unicode="&#xb0;" d="M205 614q0 166 65 318t174.5 262t261 175t318.5 65t318.5 -65t261 -175t174.5 -262t65 -318t-65 -317.5t-174.5 -261.5t-261 -175t-318.5 -65t-318.5 65t-261 175t-174.5 261.5t-65 317.5z" />
<glyph unicode="&#xb1;" d="M331 615q0 25 19 42l631 631q17 19 43 19t43 -19l631 -631q19 -17 19 -42t-19 -44l-131 -131q-17 -17 -42 -17t-44 17l-305 305v-761q0 -26 -18.5 -44t-43.5 -18h-184q-26 0 -44 18t-18 44v757l-301 -301q-19 -17 -44 -17t-42 17l-131 131q-19 19 -19 44z" />
<glyph unicode="&#xb6;" horiz-adv-x="1228" />
<glyph unicode="&#xb7;" d="M102 41v1393h1844v-1393q0 -101 -72.5 -173.5t-173.5 -72.5h-1352q-101 0 -173.5 72.5t-72.5 173.5zM253 759q0 -170 120 -290l245 -246q19 -19 44.5 -19t42.5 19l59 58q17 19 17 44t-17 44l-246 245q-62 60 -62 144.5t62 144.5q60 60 144.5 60t144.5 -60l246 -246 q19 -19 44 -19t44 19l57 58q19 19 19 44t-19 44l-246 246q-120 120 -289.5 120t-289.5 -120t-120 -290zM831 470q0 -25 19 -44l246 -246q120 -120 289.5 -120t289.5 120t120 290t-120 290l-245 246q-19 19 -44.5 19t-42.5 -19l-59 -58q-17 -19 -17 -44t17 -44l248 -246 q60 -60 60 -144t-60 -144q-62 -60 -146.5 -60t-144.5 60l-246 245q-19 19 -44 19t-44 -19l-57 -57q-19 -19 -19 -44z" />
<glyph unicode="&#xbb;" d="M102 41v1393h492v-1639h-246q-101 0 -173.5 72.5t-72.5 173.5zM717 -205v1639h573v-1639h-573zM1413 -205v1639h533v-1393q0 -101 -72.5 -173.5t-173.5 -72.5h-287z" />
<glyph unicode="&#xbf;" d="M205 614q0 167 65 319t174.5 261.5t261 174.5t318.5 65t318.5 -65t261 -174.5t174.5 -261.5t65 -319t-65 -318.5t-174.5 -261t-261 -174.5t-318.5 -65t-318.5 65t-261 174.5t-174.5 261t-65 318.5zM410 573q0 -26 18 -43.5t43 -17.5h1106q26 0 43.5 17.5t17.5 43.5v82 q0 25 -17.5 43.5t-43.5 18.5h-1106q-25 0 -43 -18.5t-18 -43.5v-82z" />
<glyph unicode="&#xd7;" horiz-adv-x="1228" />
<glyph unicode="&#xdf;" d="M82 922q0 212 150 362t362 150v-512h512q0 -212 -150 -362t-362 -150t-362 150t-150 362zM532 41v-328q0 -17 12 -29t29 -12h123q17 0 29 12t12 29v328q0 17 -12 29t-29 12h-123q-17 0 -29 -12t-12 -29zM717 1044v512q212 0 362 -150t150 -362h-512zM942 246v-533 q0 -17 12 -29t29 -12h123q17 0 29 12t12 29v533q0 17 -12 29t-29 12h-123q-17 0 -29 -12t-12 -29zM1352 -287q0 -17 12 -29t29 -12h123q17 0 28.5 12t11.5 29v1147q0 17 -11.5 29t-28.5 12h-123q-17 0 -29 -12t-12 -29v-1147zM1761 -287q0 -17 12 -29t29 -12h123q17 0 29 12 t12 29v1352q0 17 -12 29t-29 12h-123q-17 0 -29 -12t-12 -29v-1352z" />
<glyph unicode="&#xe5;" d="M102 614q0 113 31 228h629l-461 -799q-3 4 -9 12.5t-9 12.5q-181 247 -181 546zM166 946q0 4 2 6q0 1 4 13t8 18q82 188 238.5 324.5t355.5 191.5l318 -553h-926zM375 -39l313 541l461 -801q-3 0 -11 -1t-12 -1q-50 -6 -102 -6q-187 0 -354.5 70.5t-294.5 197.5z M883 1524h6q15 3 33 6q50 6 102 6q186 0 353 -70.5t294 -197.5l-317 -551zM944 268h934q-2 -3 -5 -11t-5 -11q-83 -192 -244.5 -330t-366.5 -192zM1276 373l469 813q3 -4 10 -12.5t10 -12.5q181 -247 181 -547q0 -116 -33 -241h-637z" />
<glyph unicode="&#xf7;" d="M307 41v-82q0 -25 18 -43t44 -18h696q26 0 43.5 18t17.5 43v82q0 26 -17.5 43.5t-43.5 17.5h-696q-26 0 -44 -17.5t-18 -43.5zM307 369q0 -25 18 -43.5t44 -18.5h1310q26 0 44 18.5t18 43.5v82q0 26 -18 43.5t-44 17.5h-1310q-26 0 -44 -17.5t-18 -43.5v-82zM307 778 q0 -25 18 -43t44 -18h1310q26 0 44 18t18 43v82q0 26 -18 44t-44 18h-1310q-26 0 -44 -18t-18 -44v-82zM307 1188q0 -25 18 -43.5t44 -18.5h1310q26 0 44 18.5t18 43.5v82q0 26 -18 43.5t-44 17.5h-1310q-26 0 -44 -17.5t-18 -43.5v-82z" />
<glyph unicode="&#x192;" d="M102 -51v1065h410v266q0 101 72.5 173.5t173.5 72.5h532q101 0 173.5 -72.5t72.5 -173.5v-266h410v-1065q0 -101 -72.5 -173.5t-173.5 -72.5h-1352q-101 0 -173.5 72.5t-72.5 173.5zM717 1014h614v266q0 16 -12 28.5t-29 12.5h-532q-17 0 -29 -12.5t-12 -28.5v-266z" />
<glyph unicode="&#x2000;" horiz-adv-x="819" />
<glyph unicode="&#x2001;" horiz-adv-x="1638" />
<glyph unicode="&#x2002;" horiz-adv-x="819" />
<glyph unicode="&#x2003;" horiz-adv-x="1638" />
<glyph unicode="&#x2004;" horiz-adv-x="546" />
<glyph unicode="&#x2005;" horiz-adv-x="409" />
<glyph unicode="&#x2006;" horiz-adv-x="273" />
<glyph unicode="&#x2007;" horiz-adv-x="273" />
<glyph unicode="&#x2008;" horiz-adv-x="204" />
<glyph unicode="&#x2009;" horiz-adv-x="327" />
<glyph unicode="&#x200a;" horiz-adv-x="91" />
<glyph unicode="&#x2010;" d="M178 874h299q0 -122 47.5 -233.5t128.5 -191.5t192.5 -127.5t233.5 -47.5q76 0 150 19q-197 52 -324 213t-127 368h301l-397 529q-22 31 -54 31t-55 -31zM1229 123v-246q0 -51 36 -87t87 -36h368q51 0 87 36t36 87v246q0 51 -36 87t-87 36h-368q-51 0 -87 -36t-36 -87z M1229 492q0 -51 36 -87t87 -36h368q51 0 87 36t36 87v245q0 51 -36 87t-87 36h-368q-51 0 -87 -36t-36 -87v-245zM1229 1106q0 -51 36 -87t87 -36h368q51 0 87 36t36 87v246q0 51 -36 87t-87 36h-368q-51 0 -87 -36t-36 -87v-246z" />
<glyph unicode="&#x2011;" d="M178 874h299q0 -122 47.5 -233.5t128.5 -191.5t192.5 -127.5t233.5 -47.5q76 0 150 19q-197 52 -324 213t-127 368h301l-397 529q-22 31 -54 31t-55 -31zM1229 123v-246q0 -51 36 -87t87 -36h368q51 0 87 36t36 87v246q0 51 -36 87t-87 36h-368q-51 0 -87 -36t-36 -87z M1229 492q0 -51 36 -87t87 -36h368q51 0 87 36t36 87v245q0 51 -36 87t-87 36h-368q-51 0 -87 -36t-36 -87v-245zM1229 1106q0 -51 36 -87t87 -36h368q51 0 87 36t36 87v246q0 51 -36 87t-87 36h-368q-51 0 -87 -36t-36 -87v-246z" />
<glyph unicode="&#x2012;" d="M178 874h299q0 -122 47.5 -233.5t128.5 -191.5t192.5 -127.5t233.5 -47.5q76 0 150 19q-197 52 -324 213t-127 368h301l-397 529q-22 31 -54 31t-55 -31zM1229 123v-246q0 -51 36 -87t87 -36h368q51 0 87 36t36 87v246q0 51 -36 87t-87 36h-368q-51 0 -87 -36t-36 -87z M1229 492q0 -51 36 -87t87 -36h368q51 0 87 36t36 87v245q0 51 -36 87t-87 36h-368q-51 0 -87 -36t-36 -87v-245zM1229 1106q0 -51 36 -87t87 -36h368q51 0 87 36t36 87v246q0 51 -36 87t-87 36h-368q-51 0 -87 -36t-36 -87v-246z" />
<glyph unicode="&#x2013;" d="M307 1378q111 27 205 27q167 0 318.5 -65t261 -175t174.5 -261.5t65 -317.5h410l-541 -721q-31 -41 -73.5 -41t-73.5 41l-541 721h410q0 283 -173.5 503.5t-441.5 288.5z" />
<glyph unicode="&#x2014;" d="M205 522q0 -25 17.5 -43t43.5 -18h1516q26 0 43.5 18t17.5 43v185q0 26 -17.5 43.5t-43.5 17.5h-1516q-26 0 -43.5 -17.5t-17.5 -43.5v-185z" />
<glyph unicode="&#x2018;" d="M307 430q0 -26 18 -43.5t44 -17.5h1310q26 0 44 17.5t18 43.5v82q0 26 -18 43.5t-44 17.5h-1310q-26 0 -44 -17.5t-18 -43.5v-82zM307 1413q0 -26 18 -43.5t44 -17.5h1310q26 0 44 17.5t18 43.5v82q0 26 -18 43.5t-44 17.5h-1310q-26 0 -44 -17.5t-18 -43.5v-82zM717 164 v-369q0 -51 36 -87t87 -36h368q51 0 87 36t36 87v369q0 51 -36 87t-87 36h-368q-51 0 -87 -36t-36 -87zM717 778q0 -51 36 -87t87 -36h368q51 0 87 36t36 87v369q0 51 -36 87t-87 36h-368q-51 0 -87 -36t-36 -87v-369z" />
<glyph unicode="&#x2019;" d="M82 -41q0 -26 17.5 -43.5t43.5 -17.5h82q26 0 44 17.5t18 43.5v1311q0 26 -18 43.5t-44 17.5h-82q-26 0 -43.5 -17.5t-17.5 -43.5v-1311zM369 430q0 -51 36 -87t87 -36h368q51 0 87 36t36 87v369q0 51 -36 87t-87 36h-368q-51 0 -87 -36t-36 -87v-369zM1065 430 q0 -51 36 -87t87 -36h368q51 0 87 36t36 87v369q0 51 -36 87t-87 36h-368q-51 0 -87 -36t-36 -87v-369zM1761 -41q0 -26 18 -43.5t44 -17.5h82q26 0 43.5 17.5t17.5 43.5v1311q0 26 -17.5 43.5t-43.5 17.5h-82q-26 0 -44 -17.5t-18 -43.5v-1311z" />
<glyph unicode="&#x201a;" />
<glyph unicode="&#x201c;" d="M612 88h310v1051h-310l338 446q31 40 74 40t74 -40l338 -446h-310v-1051h310l-338 -444q-31 -40 -74 -40t-74 40z" />
<glyph unicode="&#x201d;" d="M13 614.5q0 42.5 40 73.5l447 336v-307h1050v307l445 -336q40 -31 40 -73.5t-40 -73.5l-445 -336v307h-1050v-307l-447 336q-40 31 -40 73.5z" />
<glyph unicode="&#x201e;" />
<glyph unicode="&#x2021;" d="M98 463q0 -23 16.5 -39t39.5 -16h1112q23 0 39 16t16 39v858q0 23 -16 38t-39 15h-1112q-24 0 -40 -15t-16 -38v-858zM416 238h616l-270 -361q-15 -20 -37.5 -20t-36.5 20zM1540 596v616l361 -270q20 -15 20 -38t-20 -38z" />
<glyph unicode="&#x2022;" d="M102 549v131q0 35 25.5 64.5t60.5 33.5q82 19 82 21q74 17 105 75q1 3 4 10.5t4 10.5q20 63 -21 125l-45 70q-22 28 -19 66.5t28 64.5l92 92q26 25 64 27.5t67 -19.5l72 -43q62 -39 120 -23q6 2 17.5 7.5t17.5 7.5q52 28 66 98l18 82q5 35 33 60.5t65 25.5h132 q35 0 64.5 -25.5t33.5 -60.5q0 -1 0.5 -3.5t2 -9l3 -13t3.5 -15t3.5 -15t2.5 -12.5t2 -9l1 -3q0 -2 2 -2q14 -65 62 -96q28 -10 49 -21q53 -11 108 25l70 45q29 23 67.5 20.5t63.5 -28.5l94 -92q25 -25 28 -63.5t-19 -67.5l-43 -72h-2q-33 -56 -25 -109q17 -31 25 -57 q29 -44 92 -55l82 -17q36 -6 61 -35t25 -65v-129q0 -36 -25 -65t-61 -35l-82 -19q-35 -9 -56.5 -22t-38.5 -37q-12 -37 -24 -58q-9 -53 27 -104l45 -70q22 -29 19 -67.5t-28 -63.5l-92 -92q-26 -26 -64 -28.5t-67 20.5l-72 43q-57 35 -110 24q-41 -18 -51 -22 q-49 -30 -60 -92l-18 -82q-5 -37 -33 -62.5t-65 -25.5h-132q-36 0 -65 26t-33 62l-18 80l-2 2q-14 66 -68 98q-15 5 -37 16q-60 15 -114 -24l-70 -45q-29 -22 -67.5 -19.5t-63.5 27.5l-94 92q-25 26 -28 64.5t19 66.5q3 5 7.5 12t14 23t16 26.5t5.5 10.5q2 0 2 2 q38 64 19 125q-1 5 -4 12.5t-4 9.5q-18 31 -41 48t-62 26l-82 17q-35 4 -60.5 33.5t-25.5 64.5zM563 614q0 -190 135 -325t326 -135t326 135t135 325q0 126 -62 232t-168 167.5t-231 61.5t-231 -61.5t-168 -167.5t-62 -232z" />
<glyph unicode="&#x2026;" d="M102 41v1393h1844v-1393q0 -100 -72.5 -173t-173.5 -73h-1352q-101 0 -173.5 73t-72.5 173zM410 164q0 -25 17.5 -43.5t43.5 -18.5h799q26 0 43.5 18.5t17.5 43.5v82q0 26 -17.5 43.5t-43.5 17.5h-799q-26 0 -43.5 -17.5t-17.5 -43.5v-82zM410 573q0 -25 17.5 -43 t43.5 -18h1106q26 0 43.5 18t17.5 43v82q0 26 -17.5 44t-43.5 18h-1106q-26 0 -43.5 -18t-17.5 -44v-82zM410 983q0 -25 17.5 -43t43.5 -18h1106q26 0 43.5 18t17.5 43v82q0 26 -17.5 43.5t-43.5 17.5h-1106q-26 0 -43.5 -17.5t-17.5 -43.5v-82z" />
<glyph unicode="&#x202f;" horiz-adv-x="327" />
<glyph unicode="&#x2030;" d="M205 614q0 166 65 318t174.5 262t261 175t318.5 65t318.5 -65t261 -175t174.5 -262t65 -318t-65 -317.5t-174.5 -261.5t-261 -175t-318.5 -65t-318.5 65t-261 175t-174.5 261.5t-65 317.5z" />
<glyph unicode="&#x2039;" d="M102 41v1393h1844v-1393q0 -101 -72.5 -173.5t-173.5 -72.5h-1352q-101 0 -173.5 72.5t-72.5 173.5zM304 615.5q0 -43.5 40 -74.5l311 -234v205h738v-205l311 234q40 31 40 74.5t-40 72.5l-311 234v-205h-738v205l-311 -234q-40 -29 -40 -72.5z" />
<glyph unicode="&#x203a;" d="M253 -38q0 25 17 44l170 170q-53 124 -53 262q0 104 33 197t85 162t123.5 146t140 143.5t142.5 159.5t125 188q36 -72 88.5 -145t93 -119t103.5 -113l311 311q19 17 44 17t42 -17l60 -59q17 -17 17 -42t-17 -44l-1362 -1362q-19 -17 -44 -17t-42 17l-60 59q-17 17 -17 42 zM627 -66l895 895q139 -188 139 -401q0 -128 -50.5 -245.5t-136 -202t-203 -135t-245.5 -50.5h-6q-222 3 -393 139z" />
<glyph unicode="&#x2044;" d="M253 -36q0 25 17 42l283 283l-180 182q-120 120 -120 289t120 289q120 121 289.5 121t289.5 -121l181 -181l499 500q19 19 44 19t42 -19l60 -57q17 -19 17 -44t-17 -44l-1362 -1360q-19 -19 -44 -19t-42 19l-60 57q-17 19 -17 44zM456.5 759.5q0.5 -85.5 61.5 -145.5 l180 -180l289 289l-180 182q-60 60 -144.5 60t-146.5 -60q-60 -60 -59.5 -145.5zM993 283l146 145l102 -102q60 -60 144.5 -60t144.5 60q62 60 62 144t-62 144l-103 105l146 143l102 -102q120 -120 120 -290t-120 -290t-289.5 -120t-289.5 120z" />
<glyph unicode="&#x205f;" horiz-adv-x="409" />
<glyph unicode="&#x20ac;" d="M102 41v1393h1229v-1639h-983q-101 0 -173.5 72.5t-72.5 173.5zM1454 -205v1639h492v-1393q0 -101 -72.5 -173.5t-173.5 -72.5h-246z" />
<glyph unicode="&#x2122;" horiz-adv-x="4096" />
<glyph unicode="&#x2202;" />
<glyph unicode="&#x2205;" d="M410 578l540 720q31 40 74 40t74 -40l540 -720h-471v-625q0 -26 -17.5 -44t-43.5 -18h-184q-26 0 -44 18t-18 44v625h-450z" />
<glyph unicode="&#x220f;" d="M0 123v778h410v737h1228v-737h410v-778q0 -101 -72.5 -173.5t-173.5 -72.5h-164v-287h-1228v287h-164q-101 0 -173.5 72.5t-72.5 173.5zM614 0v-205h820v205h-820zM614 614h820v820h-820v-820zM1638 184q0 -43 30 -72.5t73 -29.5t72.5 29.5t29.5 72.5t-29.5 73t-72.5 30 t-73 -30t-30 -73z" />
<glyph unicode="&#x2211;" horiz-adv-x="1228" />
<glyph unicode="&#x2212;" d="M307 522q0 -25 18 -43t44 -18h1310q26 0 44 18t18 43v185q0 26 -18 43.5t-44 17.5h-1310q-26 0 -44 -17.5t-18 -43.5v-185z" />
<glyph unicode="&#x221a;" horiz-adv-x="1228" />
<glyph unicode="&#x221e;" d="M102 41v778h1844v-778q0 -101 -72.5 -173.5t-173.5 -72.5h-1352q-101 0 -173.5 72.5t-72.5 173.5zM102 942v492h1844v-492h-1844z" />
<glyph unicode="&#x222b;" d="M256.5 -153q-17.5 18 1.5 61l150 350q20 45 55.5 99t68.5 85l912 912q37 37 88 37t86 -37l145 -146q37 -35 37 -86t-37 -88l-911 -911q-33 -33 -87 -69.5t-97 -55.5l-351 -150q-43 -19 -60.5 -1zM639 -164l88 37q42 19 96 56t86 69l43 43h725q26 0 44 -17.5t18 -43.5v-82 q0 -25 -18 -43.5t-44 -18.5h-1038z" />
<glyph unicode="&#x2248;" d="M205 614q0 166 65 318t174.5 262t261 175t318.5 65t318.5 -65t261 -175t174.5 -262t65 -318t-65 -317.5t-174.5 -261.5t-261 -175t-318.5 -65t-318.5 65t-261 175t-174.5 261.5t-65 317.5z" />
<glyph unicode="&#x2264;" d="M102 41v1393h1844v-1393q0 -101 -72.5 -173.5t-173.5 -72.5h-1352q-101 0 -173.5 72.5t-72.5 173.5zM309 72q0 -29 21.5 -50.5t50.5 -21.5h1286q29 0 50.5 21.5t21.5 50.5v215q0 29 -16.5 62t-41.5 52l-172 127q-23 19 -54.5 16.5t-51.5 -22.5l-115 -114 q-20 -20 -47.5 -18.5t-46.5 24.5l-412 530q-19 23 -44 23t-44 -23l-342 -459q-18 -23 -30.5 -60t-12.5 -67v-286z" />
<glyph unicode="&#x2265;" d="M205 10v901q0 26 18 44t43 18h144v-819h819v-144q0 -25 -18 -43t-44 -18h-901q-25 0 -43 18t-18 43zM614 420v860h1229v-860q0 -26 -17.5 -44t-43.5 -18h-1106q-25 0 -43.5 18t-18.5 44zM778 543h901v174l-153 102l-115 -102l-342 358l-291 -325v-207z" />
<glyph unicode="&#x25ca;" d="M0 -410v2048h2048v-2048h-2048zM102 41q0 -101 72.5 -173.5t173.5 -72.5h1352q101 0 173.5 72.5t72.5 173.5v1393h-1844v-1393z" />
<glyph unicode="&#xe000;" horiz-adv-x="1208" d="M0 0v1208h1208v-1208h-1208z" />
</font>
</defs>
</svg>
