<?xml version="1.0" encoding="utf-8"?>
<!-- Generator: Adobe Illustrator 16.0.0, SVG Export Plug-In . SVG Version: 6.00 Build 0)  -->
<!DOCTYPE svg PUBLIC "-//W3C//DTD SVG 1.1//EN" "http://www.w3.org/Graphics/SVG/1.1/DTD/svg11.dtd">
<svg version="1.1" id="logo" xmlns="http://www.w3.org/2000/svg" xmlns:xlink="http://www.w3.org/1999/xlink" x="0px" y="0px"
	 width="100%" height="100%" viewBox="0 0 960 190" enable-background="new 0 0 960 190" xml:space="preserve">
	 
	 <a xlink:href="http://www.viewbook.com/" target="_blank">
   <rect x="0" y="0" width="100%" height="100%" fill-opacity="0.0"/>
   
<path fill="#FFFFFF" d="M56.643,179.266c-11.137,0-13.225-3.249-16.009-11.832L13.49,83.218C9.778,71.849,6.993,63.73,5.601,60.48
	c4.873-0.462,9.281-0.695,13.457-0.695c15.775,0,18.56,2.32,21.343,13.222l21.113,79.114l20.879-79.114
	c2.785-10.902,5.105-13.222,18.793-13.222c4.175,0,8.119,0.233,14.15,0.695c-1.391,3.25-4.175,11.369-7.887,22.739l-27.143,84.214
	c-2.786,8.583-5.104,11.832-16.241,11.832H56.643z"/>
<path fill="#FFFFFF" d="M143.156,41.458c-9.976,0-15.778-5.57-15.778-16.241c0-10.44,5.801-16.24,15.547-16.24h2.087
	c9.976,0,15.775,5.799,15.775,16.24c0,10.671-5.799,16.241-15.775,16.241H143.156z M129.699,80.433
	c0-7.887-0.464-16.008-0.696-19.72c6.498-0.927,12.298-1.392,16.475-1.392c11.135,0,12.992,3.249,12.992,12.528v85.609
	c0,7.89,0.463,16.008,0.696,19.72c-6.498,0.927-12.295,1.392-16.475,1.392c-11.136,0-12.991-3.246-12.991-12.53V80.433z"/>
<path fill="#FFFFFF" d="M237.743,179.964c-34.799,0-55.911-20.648-55.911-60.553c0-33.178,12.759-61.945,53.358-61.945
	c41.064,0,48.953,29.695,48.953,59.859c0,8.349-2.552,11.598-9.976,11.598h-63.335c2.32,17.864,10.439,29.001,29.232,29.001
	c15.312,0,25.289-7.424,32.943-16.708c2.319,1.627,5.8,4.18,7.423,5.805c2.552,2.317,3.712,5.102,3.712,7.652
	C284.144,164.417,267.44,179.964,237.743,179.964z M254.913,107.809c-0.233-14.15-2.552-28.071-20.882-28.071
	c-15.079,0-22.272,9.279-23.663,29.005h44.545V107.809z"/>
<path fill="#FFFFFF" d="M346.134,179.266h-7.886c-10.44,0-12.993-3.249-15.082-11.832l-21.112-84.216c-3.016-11.599-6.031-19.487-7.423-22.738
	c3.943-0.461,10.438-0.695,16.934-0.695c12.064,0,15.08,2.785,16.937,11.602l15.544,80.505l18.096-80.273
	c1.856-8.587,4.176-11.834,14.617-11.834h4.64c10.439,0,12.295,3.247,14.382,11.834l18.562,80.503l15.543-80.736
	c1.625-8.583,3.944-12.065,16.704-12.065c5.567,0,12.528,0.698,16.472,1.159c-1.393,3.25-4.176,11.139-7.191,22.738l-22.041,84.216
	c-2.319,8.583-4.872,11.832-15.31,11.832h-7.423c-10.442,0-13.227-3.249-15.314-11.832l-17.169-70.062l-17.167,70.062
	C359.359,176.017,356.573,179.266,346.134,179.266z"/>
<path fill="#FFFFFF" d="M489.557,172.77c-9.743-4.177-10.672-7.887-10.672-20.415V30.09c0-7.889-0.463-15.775-0.696-19.488
	c6.498-0.928,12.297-1.391,16.473-1.391c11.135,0,12.991,3.247,12.991,12.528v36.423c0,4.872-0.464,10.905-0.927,16.239
	c8.118-12.062,20.415-16.933,32.943-16.933c33.871,0,43.616,27.377,43.616,56.608c0,31.087-16.01,65.655-58.464,65.655
	C512.062,179.729,501.39,177.874,489.557,172.77z M553.589,116.86c0-22.74-4.64-35.963-21.343-35.963
	c-19.487,0-25.752,19.025-25.752,33.642v38.975c5.334,2.553,12.063,4.178,19.719,4.178
	C542.918,157.691,553.589,144.697,553.589,116.86z"/>
<path fill="#FFFFFF" d="M654.088,180.196c-34.333,0-52.428-22.738-52.428-59.161c0-39.905,18.789-63.569,54.748-63.569
	c34.109,0,51.973,22.271,51.973,59.625C708.381,156.993,687.039,180.196,654.088,180.196z M678.682,118.02
	c0-24.128-3.708-38.282-23.195-38.282c-22.272,0-24.129,20.185-24.129,39.906c0,26.218,4.638,38.28,23.196,38.28
	C675.437,157.924,678.682,140.987,678.682,118.02z"/>
<path fill="#FFFFFF" d="M779.299,180.196c-34.333,0-52.431-22.738-52.431-59.161c0-39.905,18.789-63.569,54.751-63.569
	c34.105,0,51.968,22.271,51.968,59.625C833.587,156.993,812.245,180.196,779.299,180.196z M803.892,118.02
	c0-24.128-3.712-38.282-23.196-38.282c-22.272,0-24.132,20.185-24.132,39.906c0,26.218,4.641,38.28,23.203,38.28
	C800.646,157.924,803.892,140.987,803.892,118.02z"/>
<path fill="#FFFFFF" d="M857.23,30.322c0-7.889-0.465-16.008-0.698-19.72c6.496-0.928,12.296-1.391,16.476-1.391
	c11.134,0,12.989,3.247,12.989,12.528v135.719c0,7.89,0.465,16.01,0.697,19.723c-6.497,0.926-12.295,1.389-16.473,1.389
	c-11.136,0-12.991-3.244-12.991-12.527V30.322L857.23,30.322z M937.964,178.569c-10.903,0-13.918-2.783-18.791-10.438
	c-9.744-15.312-33.176-51.507-33.176-51.507l46.863-57.999c11.141,4.406,16.938,9.744,16.938,15.774c0,4.642-3.012,9.977-9.279,17.4
	l-21.347,24.13l36.423,54.286c-0.926,6.035-6.027,8.353-12.993,8.353H937.964L937.964,178.569z"/>

	</a>

</svg>
